<svg xmlns="http://www.w3.org/2000/svg" fill="none" viewBox="0 0 112 112"><path fill="#000" fill-rule="evenodd" d="M112 0H0v112h112V0ZM4 4h32v32H4V4Zm32 36H4v32h32V40Zm4 0v32h32V40H40Zm36-4h32V4H76v32Zm32 4H76v32h32V40Zm0 36H76v32h32V76Zm-36 0H40v32h32V76Zm-36 0v32H4V76h32Zm36-40V4H40v32h32Z" clip-rule="evenodd"/><path fill="#fff" d="M36 4H4v32h32V4Z"/><path fill="#FF3E00" d="M72 4v32H40V4h32Z"/><path fill="#fff" d="M108 36H76V4h32v32Z"/><path fill="#FF3E00" d="M4 40h32v32H4V40Z"/><path fill="#fff" d="M40 72V40h32v32H40Z"/><path fill="#FF3E00" d="M108 40H76v32h32V40Z"/><path fill="#fff" d="M36 108V76H4v32h32Z"/><path fill="#FF3E00" d="M72 76H40v32h32V76Z"/><path fill="#fff" d="M76 76h32v32H76V76Z"/><mask id="a" width="68" height="82" x="22" y="15" fill="#000" maskUnits="userSpaceOnUse"><path fill="#fff" d="M22 15h68v82H22z"/><path d="M82.165 29.539c-6.695-9.582-19.916-12.422-29.476-6.33l-16.79 10.7a19.262 19.262 0 0 0-8.701 12.901 20.286 20.286 0 0 0 2 13.023 19.313 19.313 0 0 0-2.881 7.199 20.525 20.525 0 0 0 3.506 15.523c6.696 9.582 19.918 12.421 29.476 6.33l16.79-10.7a19.258 19.258 0 0 0 8.701-12.901c.8-4.443.097-9.026-1.999-13.024a19.312 19.312 0 0 0 2.88-7.198 20.521 20.521 0 0 0-3.506-15.523"/></mask><path fill="#fff" d="M82.165 29.539c-6.695-9.582-19.916-12.422-29.476-6.33l-16.79 10.7a19.262 19.262 0 0 0-8.701 12.901 20.286 20.286 0 0 0 2 13.023 19.313 19.313 0 0 0-2.881 7.199 20.525 20.525 0 0 0 3.506 15.523c6.696 9.582 19.918 12.421 29.476 6.33l16.79-10.7a19.258 19.258 0 0 0 8.701-12.901c.8-4.443.097-9.026-1.999-13.024a19.312 19.312 0 0 0 2.88-7.198 20.521 20.521 0 0 0-3.506-15.523"/><path fill="#000" d="m52.689 23.208-2.15-3.373 2.15 3.373Zm-16.79 10.7 2.13 3.386.01-.006.01-.006-2.15-3.373ZM27.199 46.81l3.936.71v-.003l-3.936-.707Zm2 13.023 3.34 2.202 1.299-1.97-1.097-2.09-3.542 1.858Zm-2.881 7.199-3.936-.711-.002.01 3.938.7Zm3.506 15.523 3.279-2.291-.012-.017-.012-.017-3.255 2.325Zm29.476 6.33 2.15 3.374-2.15-3.374Zm16.79-10.7-2.13-3.386-.01.006-.01.007 2.15 3.373Zm8.701-12.901-3.937-.71v.003l3.937.707ZM82.791 52.26l-3.34-2.201-1.298 1.97 1.095 2.088 3.543-1.857Zm2.88-7.198 3.936.71.002-.01-3.938-.7Zm-.227-17.814C77.584 16 61.998 12.534 50.54 19.835l4.298 6.747C62.5 21.7 73.356 23.915 78.886 31.83l6.558-4.582Zm-34.905-7.413-16.79 10.7 4.3 6.747 16.79-10.7-4.3-6.747ZM33.77 30.523a23.261 23.261 0 0 0-6.897 6.682l6.632 4.473a15.262 15.262 0 0 1 4.526-4.383l-4.26-6.772Zm-6.897 6.682a23.263 23.263 0 0 0-3.611 8.899l7.874 1.413a15.26 15.26 0 0 1 2.369-5.839l-6.632-4.473Zm-3.61 8.896a24.286 24.286 0 0 0 2.394 15.59l7.084-3.716a16.286 16.286 0 0 1-1.606-10.455l-7.873-1.42Zm2.596 11.53a23.316 23.316 0 0 0-3.477 8.69l7.872 1.422a15.316 15.316 0 0 1 2.285-5.708l-6.68-4.403Zm-3.48 8.7a24.528 24.528 0 0 0 .225 9.697l7.803-1.762a16.526 16.526 0 0 1-.15-6.534l-7.877-1.4Zm.225 9.697a24.526 24.526 0 0 0 3.965 8.852l6.51-4.65a16.526 16.526 0 0 1-2.672-5.964l-7.803 1.762Zm3.941 8.818c7.86 11.249 23.448 14.713 34.904 7.413l-4.299-6.747c-7.66 4.881-18.516 2.668-24.047-5.248l-6.558 4.582Zm34.905 7.413 16.789-10.701-4.3-6.746-16.789 10.7 4.3 6.747ZM78.218 81.57a23.26 23.26 0 0 0 6.898-6.682l-6.632-4.473a15.258 15.258 0 0 1-4.526 4.383l4.26 6.772Zm6.898-6.682a23.257 23.257 0 0 0 3.611-8.9l-7.874-1.412a15.258 15.258 0 0 1-2.369 5.839l6.633 4.473Zm3.61-8.896a24.294 24.294 0 0 0-2.392-15.59l-7.086 3.715a16.294 16.294 0 0 1 1.605 10.456l7.874 1.419ZM86.132 54.46a23.312 23.312 0 0 0 3.476-8.689l-7.873-1.42a15.311 15.311 0 0 1-2.283 5.707l6.68 4.402Zm3.478-8.698a24.52 24.52 0 0 0-.223-9.698l-7.804 1.763c.485 2.146.536 4.367.15 6.533l7.877 1.402Zm-.223-9.698a24.522 24.522 0 0 0-3.967-8.851l-6.51 4.65a16.521 16.521 0 0 1 2.673 5.964l7.804-1.763Z" mask="url(#a)"/><path fill="#000" d="M51.049 83.456a13.337 13.337 0 0 1-14.314-5.305 12.343 12.343 0 0 1-2.109-9.336c.098-.53.232-1.055.401-1.567l.316-.965.86.632a21.659 21.659 0 0 0 6.568 3.282l.624.189-.057.623c-.076.886.163 1.77.677 2.496a4.015 4.015 0 0 0 4.31 1.6 3.7 3.7 0 0 0 1.03-.454l16.79-10.699a3.496 3.496 0 0 0 1.578-2.337 3.73 3.73 0 0 0-.636-2.814 4.018 4.018 0 0 0-4.311-1.6c-.365.097-.712.25-1.03.453l-6.407 4.084a12.25 12.25 0 0 1-3.41 1.497 13.336 13.336 0 0 1-14.313-5.306 12.34 12.34 0 0 1-2.11-9.335 11.58 11.58 0 0 1 5.234-7.758l16.788-10.7a12.231 12.231 0 0 1 3.412-1.499 13.337 13.337 0 0 1 14.313 5.306 12.342 12.342 0 0 1 2.11 9.335 11.828 11.828 0 0 1-.402 1.568l-.316.964-.86-.63a21.638 21.638 0 0 0-6.568-3.283l-.624-.19.058-.623a3.77 3.77 0 0 0-.677-2.496 4.015 4.015 0 0 0-4.31-1.6 3.7 3.7 0 0 0-1.031.454l-16.79 10.7a3.49 3.49 0 0 0-1.577 2.337 3.725 3.725 0 0 0 .635 2.814 4.018 4.018 0 0 0 4.311 1.6c.365-.097.713-.25 1.031-.453l6.407-4.082a12.217 12.217 0 0 1 3.408-1.499 13.337 13.337 0 0 1 14.314 5.306 12.34 12.34 0 0 1 2.11 9.335 11.586 11.586 0 0 1-5.234 7.759L54.46 81.957a12.23 12.23 0 0 1-3.412 1.5"/></svg>
